<svg width="414" height="297" viewBox="0 0 414 297" fill="none" xmlns="http://www.w3.org/2000/svg">
<path d="M322.257 134.251C321.483 132.26 322.589 131.264 323.031 129.495C323.473 127.725 322.036 122.196 322.036 122.196C322.036 122.196 317.391 103.063 315.953 99.3027C315.345 97.7115 314.023 96.6169 312.701 95.8818C312.612 95.3937 312.482 95.0789 312.303 94.9895C311.022 94.3485 307.831 92.9569 305.704 92.5721C305.307 91.8886 304.835 91.2509 304.298 90.6705C304.671 89.9536 304.844 89.1494 304.799 88.3425C304.664 86.256 303.083 84.3862 303.289 82.3054C303.445 80.7273 304.599 79.4309 305.044 77.9089C305.23 77.2254 305.275 76.5107 305.174 75.8094C305.072 75.108 304.828 74.435 304.456 73.832C304.783 74.18 305.111 74.528 305.438 74.876C305.883 74.2091 306.097 73.4146 306.048 72.6143C305.998 71.814 305.688 71.052 305.164 70.4449C304.128 69.3005 302.396 68.8713 301.592 67.5535C300.766 66.1994 301.21 64.3593 300.429 62.9788C298.516 59.5968 293.618 61.9943 290.684 60.8139C289.479 60.3288 288.563 59.7949 287.206 59.8332C286.053 59.8994 284.913 60.1123 283.813 60.4669C282.236 60.9232 280.864 61.9071 279.925 63.254C280.018 63.1486 280.119 63.0514 280.229 62.9637C280.94 62.4066 282.186 62.453 282.562 63.2744C282.651 63.4809 282.689 63.7062 282.671 63.9305C282.61 64.9208 281.745 65.6602 280.885 66.1558C280.026 66.6513 279.058 67.0659 278.497 67.8842C277.572 69.2347 278.116 71.047 278.117 72.6844C278.109 73.7249 277.868 74.7505 277.412 75.6856C276.955 76.6207 276.295 77.4416 275.479 78.0878L278.6 76.812C277.11 79.42 276.132 82.2886 275.718 85.2636L279.937 81.7777C278.375 84.265 277.425 87.0878 277.166 90.0138L280.553 86.5435C280.707 86.8145 280.785 87.1226 280.776 87.4344L280.423 88.7966C280.299 89.0669 280.16 89.3308 280.009 89.5872C279.464 90.5231 278.9 91.675 279.41 92.6305L279.413 92.6293C278.876 94.4345 278.067 96.2408 276.266 97.1185C278.263 97.3275 280.348 96.3289 281.25 94.7396C281.397 95.0256 281.574 95.2948 281.779 95.5425C281.837 95.615 281.895 95.6871 281.952 95.7592L281.454 96.091L280.12 96.9802C280.12 96.9802 271.383 98.7497 271.936 102.068C271.959 102.204 271.986 102.367 272.017 102.55L269.503 106.823L265.854 119.21C265.854 119.21 263.974 123.191 264.305 124.85C264.637 126.509 264.305 127.172 264.305 130.159C264.305 133.145 262.868 134.361 264.305 136.794C265.743 139.227 270.056 146.305 270.056 146.305L271.004 147.016C270.958 147.443 270.974 147.874 271.052 148.296C271.936 152.72 280.231 195.077 280.231 195.077C280.231 195.077 276.028 228.588 284.544 230.689C285.612 230.952 286.661 231.191 287.68 231.404L288.968 239.868L288.194 250.596C288.194 250.596 282.332 263.867 293.06 264.641C303.788 265.415 298.921 253.139 298.921 253.139C299.488 252.091 299.719 250.895 299.585 249.711C299.476 248.727 298.555 243.603 297.652 238.676C301.723 238.188 300.961 233.867 300.419 231.967C300.653 231.83 300.829 231.611 300.912 231.352C301.035 230.911 300.749 229.176 300.232 226.744C299.81 224.326 299.089 220.412 298.598 217.761L301.244 218.192L312.414 152.72C312.414 152.72 312.488 151.677 312.454 150.153C313.981 149.363 315.556 148.669 317.169 148.075C320.819 146.637 322.257 141.329 323.473 139.117C324.69 136.905 323.031 136.241 322.257 134.251ZM282.597 92.5644C282.959 92.3153 283.382 92.1716 283.821 92.1495C283.726 92.6639 282.841 92.8142 282.1 93.0836C282.236 92.8843 282.404 92.7089 282.597 92.5644ZM277.024 125.514C277.92 126.986 276.297 130.975 274.836 134.14C273.998 133.418 273.124 133.646 274.148 131.596C274.847 130.297 275.262 128.865 275.365 127.394C275.365 127.141 275.494 125.283 276.584 124.511C276.699 124.858 276.846 125.194 277.024 125.514ZM273.667 138.219C274.174 138.012 274.942 137.695 275.979 137.343C275.482 137.995 274.915 138.771 274.345 139.619C274.129 139.456 273.955 139.244 273.838 139C273.72 138.757 273.662 138.489 273.667 138.219ZM309.538 139.67C308.866 138.955 308.323 138.316 307.876 137.745C308.71 137.964 309.559 138.2 310.423 138.453C310.854 138.517 311.293 138.488 311.712 138.367C311.75 139.132 311.75 140.223 311.75 140.223L310.539 141.061C310.263 140.559 309.927 140.091 309.538 139.67ZM312.971 135.834C312.958 135.845 312.944 135.858 312.93 135.87C312.871 135.433 312.772 135.002 312.635 134.582C311.91 132.296 311.523 128.241 311.317 124.78L313.409 131.817C313.409 131.817 313.52 135.356 312.971 135.834Z" fill="#D0CDE1"/>
<path d="M270.011 106.765C270.011 106.765 258.665 87.2638 258.31 85.1364C257.955 83.009 252.282 79.1087 252.282 79.1087C250.344 77.1704 247.164 76.5571 243.817 76.589C245.077 75.5463 240.577 74.8454 240.227 74.1447C239.872 73.4356 238.809 73.4356 237.39 72.3719C235.972 71.3082 232.432 72.1945 232.432 72.1946C231.899 71.0749 231.529 69.885 231.332 68.6609C232.843 66.8732 233.67 64.6074 233.667 62.2667C233.667 62.2412 233.666 62.2162 233.665 62.1907C233.756 62.3312 233.846 62.4725 233.936 62.6182C234.6 58.6395 235.773 55.3324 233.538 51.703C231.954 49.1306 229.475 47.2351 226.577 46.3811L224.449 48.0838L225.276 46.0978C224.58 45.9917 223.876 45.951 223.172 45.9763L221.257 48.4384L222.05 46.0606C220.388 46.2671 218.787 46.8157 217.348 47.6717C215.909 48.5277 214.663 49.6727 213.688 51.0343C211.251 54.5487 211.414 59.4339 213.811 62.9758C213.82 62.951 213.826 62.9267 213.834 62.9019C213.94 64.5589 214.459 66.1628 215.346 67.5669C216.232 68.9709 217.456 70.1302 218.907 70.9385L219.509 75.7558C218.967 76.259 218.271 76.5657 217.534 76.6268C216.471 76.6268 215.407 79.4633 215.407 79.4633C215.407 79.4633 214.804 79.7676 214.154 81.2038C212.481 82.3433 207.375 85.9227 205.481 88.424C204.36 88.9755 203.156 90.202 203.352 92.937C203.706 97.901 203.352 120.948 203.352 120.948C203.352 120.948 200.16 140.449 201.224 141.868C202.288 143.286 200.87 147.895 200.87 147.895L201.933 148.132V149.314C201.933 149.314 198.734 164.145 203.706 163.497C211.861 162.433 205.834 150.377 205.834 150.377V148.999L207.252 149.314C207.252 149.314 207.961 144.35 209.379 143.995C209.873 143.872 210.452 142.546 210.997 140.871C211.315 143.485 211.507 145.059 211.507 145.059L213.725 144.566L214.343 146.832C214.496 146.917 214.655 146.989 214.82 147.048L214.343 149.668C214.343 149.668 213.989 152.505 214.343 154.278C214.522 155.172 221.104 174.283 227.585 193.009L227.462 197.535C227.462 197.535 224.271 201.081 224.98 203.563C225.69 206.045 223.208 226.61 223.208 226.61L221.08 236.893L221.615 237.057L221.124 238.859C220.701 239.073 220.324 239.369 220.016 239.729C217.18 242.92 213.634 252.139 213.634 252.139C213.634 252.139 207.252 261.713 217.18 261.358C227.108 261.003 227.817 257.458 227.817 257.458C227.817 257.458 229.235 248.239 229.235 247.884C229.235 247.53 228.526 243.885 228.526 243.885L228.251 243.581L228.443 239.158L230.299 239.729C230.299 239.729 232.072 230.51 233.49 229.447C233.986 229.075 235.305 224.934 236.81 219.615C238.349 224.046 239.84 239.369 240.323 240.759C240.152 240.994 240.001 241.242 239.872 241.502C238.279 244.561 236.503 247.521 234.554 250.366C234.554 250.366 223.208 257.103 234.554 258.876C234.554 258.876 240.936 259.231 244.127 257.103C247.318 254.976 255.828 251.785 255.828 251.075C255.828 250.366 253.701 239.942 251.573 241.077L250.148 237.799L251.573 237.247L242.596 196.954C242.809 196.095 242.965 195.223 243.064 194.344C243.064 192.487 247.655 156.332 248.823 147.162C253.965 148.619 258.665 137.967 258.665 137.967L259.83 135.869L261.501 136.904C261.501 136.904 262.919 133.358 265.047 133.003C267.174 132.649 271.075 113.857 271.075 111.375C271.042 109.781 270.68 108.212 270.011 106.765ZM253.491 134.545C253.142 133.991 252.737 133.475 252.282 133.003C253.209 130.589 253.921 128.097 254.41 125.557C255.119 121.657 253.346 108.893 253.346 108.893L253.315 108.026C255.055 110.31 257.246 113.356 257.246 114.211C257.246 114.624 257.342 115.031 257.527 115.4C257.712 115.77 257.98 116.091 258.31 116.339L256.183 123.785C256.183 123.785 254.764 127.33 254.41 129.103C254.197 130.154 254.079 131.222 254.055 132.294L254.558 132.605L253.491 134.545Z" fill="#D0CDE1"/>
<path d="M107.687 113.328L109.579 112.902L101.778 90.919L84.9363 84.7141C84.9363 84.7141 84.8718 84.7856 84.7527 84.9089C83.3161 83.5186 82.7064 81.5011 82.4517 79.9131C83.8061 79.366 85.023 78.5267 86.0157 77.4551C87.0083 76.3834 87.7521 75.1059 88.1941 73.7136C88.6361 72.3214 88.7653 70.8487 88.5725 69.4008C88.3797 67.9528 87.8697 66.5653 87.0789 65.3372C88.4667 65.0041 88.9622 63.745 89.428 62.2437C89.1396 62.1586 88.8454 62.0946 88.5478 62.0521C88.766 61.5627 88.9843 61.0733 89.2025 60.5838C88.819 60.5494 88.4354 60.515 88.0518 60.4805C88.1499 60.023 88.248 59.5655 88.346 59.108C87.8569 59.4457 87.3677 59.7834 86.8786 60.1211C87.0447 59.6408 87.086 59.1261 86.9986 58.6255C86.9112 58.1248 86.6979 57.6546 86.3789 57.259C85.7293 56.4741 84.8821 55.8767 83.9246 55.5285C82.052 54.7917 80.0126 54.5853 78.0304 54.9317C76.0481 55.2781 74.1997 56.1641 72.688 57.4923L72.582 57.0791C69.5885 59.3803 67.6298 62.7747 67.1353 66.5179C66.6657 70.218 68.4432 73.9855 70.7535 76.9135C70.7341 76.7857 70.7132 76.6582 70.692 76.5309C70.7918 76.6684 70.895 76.8034 71.0014 76.9357L71.2854 87.7279L70.5741 88.3376C70.573 88.3381 58.6399 93.7368 58.1748 100.185L58.1734 100.19C57.4572 103.329 57.1026 119.639 57.1026 119.639H58.0845L57.1026 126.021L50.7203 150.841C50.7203 150.841 42.5652 161.479 49.6566 163.606C54.0632 164.928 55.3205 159.815 55.6411 155.754C55.8964 156.761 56.66 157.441 58.1663 157.578C58.2848 157.589 58.4114 157.598 58.5338 157.608C55.1808 166.273 57.4571 194.454 57.4571 194.454C55.6843 197.999 76.6039 222.465 76.6039 222.465L77.8636 221.793L78.1362 222.338C77.4352 222.405 76.9585 222.465 76.9585 222.465V233.456C76.9585 233.456 73.7674 244.448 78.0222 246.575C79.1232 247.126 80.2715 246.725 81.3692 245.831C81.1594 249.223 80.8588 254.285 80.8588 255.44C80.8588 257.213 85.4682 260.404 85.4682 260.404C85.4682 260.404 86.5319 264.304 95.0416 264.304C103.551 264.304 97.169 254.021 97.169 254.021L92.5596 243.739C92.5596 243.739 92.2147 243.908 91.171 243.058L91.5448 238.946L93.6233 239.129L96.4599 197.645C96.4599 197.645 98.9419 160.769 99.2965 155.096C99.3795 153.277 99.3367 151.455 99.1682 149.642L109.579 128.149L107.687 113.328ZM100.006 127.085L98.9419 130.792V122.594L100.006 127.085ZM55.74 153.38C55.7488 152.08 55.6843 151.196 55.6843 151.196L62.6161 137.332L62.4211 141.623C62.4211 141.623 56.8696 148.645 55.74 153.38ZM71.9945 193.39L78.7314 169.634L82.6317 198.354L82.352 208.795C81.877 207.836 81.4957 206.832 81.2134 205.8C80.1496 201.545 71.9945 193.39 71.9945 193.39Z" fill="#D0CDE1"/>
<path d="M167.946 249.822C164.624 248.454 158.175 245.523 157.393 243.959C156.611 242.396 152.703 230.28 152.703 230.28L151.696 230.353C151.567 224.849 151.013 203.516 150.163 200.966C150.163 200.966 154.266 167.158 146.059 153.674L144.58 147.699C145.065 145.304 145.003 139.758 144.691 138.822C144.3 137.649 149.185 133.936 147.817 131.591C146.45 129.246 142.736 121.233 142.736 121.233C142.736 121.233 143.127 116.152 137.851 111.462C137.851 111.462 136.309 102.733 129.361 102.603C128.421 100.964 127.107 98.3571 127.493 97.1965C127.908 95.9539 129.491 92.0799 130.386 89.9116C130.861 89.6969 131.317 89.443 131.75 89.1524C137.276 86.6764 141.172 80.7245 141.172 73.7716C141.172 66.3285 136.709 60.0294 130.559 57.9172C130.833 57.1952 130.945 56.4219 130.888 55.6518C130.83 54.8818 130.604 54.1338 130.225 53.4608C129.846 52.7878 129.325 52.2061 128.697 51.7569C128.068 51.3077 127.349 51.0019 126.59 50.861C125.831 50.7202 125.05 50.7479 124.303 50.942C123.555 51.1361 122.86 51.492 122.265 51.9846C121.67 52.4771 121.191 53.0942 120.861 53.7923C120.531 54.4904 120.358 55.2525 120.355 56.0247C120.016 55.223 119.882 54.3501 119.963 53.4838C120.045 52.6176 120.339 51.785 120.821 51.0603C121.302 50.3356 121.956 49.7414 122.723 49.3308C123.49 48.9202 124.347 48.7059 125.217 48.707C125.559 48.7075 125.901 48.7412 126.237 48.8076C125.078 48.2566 123.758 48.147 122.525 48.4993C121.291 48.8517 120.228 49.6417 119.536 50.7215C118.843 51.8013 118.568 53.0966 118.761 54.3648C118.955 55.633 119.605 56.787 120.589 57.6105C120.649 57.8035 120.721 57.9928 120.804 58.1774C115.017 60.5125 110.889 66.613 110.889 73.7716C110.889 80.4118 114.442 86.1397 119.575 88.7984C119.548 90.9584 119.012 94.6 116.033 96.8194C114.494 96.1162 112.359 95.3445 110.988 95.6945C110.28 95.1422 109.211 94.9599 107.756 96.4148C104.824 99.3461 102.284 106.968 102.284 111.658C102.284 116.348 102.87 143.512 102.87 143.512C102.87 143.512 99.7433 144.684 101.893 146.443C102.337 146.813 102.894 147.02 103.472 147.03L105.606 162.859C105.606 162.859 104.238 178.102 109.515 178.297C109.928 178.32 110.339 178.219 110.696 178.007L106.779 195.69C106.779 195.69 97.7891 201.552 90.7539 213.082C87.1303 219.021 85.3237 222.674 84.4214 224.825L83.1324 224.026L78.6377 232.625C78.6377 232.625 68.6711 238.683 70.8207 243.178C72.9704 247.672 74.9247 248.845 74.9247 248.845L76.2926 248.259L78.8331 252.949C78.8331 252.949 85.4775 262.524 96.2257 257.639C96.7301 256.961 97.0026 256.139 97.0026 255.294C97.0026 254.449 96.7301 253.627 96.2257 252.949C94.4669 250.408 89.9722 244.936 89.9722 244.936L92.9035 230.084L92.297 229.708L110.882 207.22C110.882 207.22 116.354 203.898 118.309 200.966C120.263 198.035 132.379 167.744 132.379 167.744L139.219 199.403C139.219 199.403 138.828 210.933 140.587 218.359C141.545 222.524 142.171 226.76 142.456 231.025L141.955 231.061L143.127 239.855C143.127 239.855 138.046 252.362 141.564 253.34C144.066 253.986 146.614 254.443 149.185 254.708L149.576 253.34C149.576 253.34 164.624 261.547 170.096 255.489C170.096 255.489 171.268 251.19 167.946 249.822ZM114.4 153.869C114.986 154.455 114.791 157.191 114.791 157.191L113.618 164.813L112.447 170.099C112.285 167.602 111.958 165.118 111.469 162.663L110.928 148.058C111.034 148.125 111.151 148.173 111.273 148.202C111.664 148.202 111.469 144.88 111.469 144.88C111.469 144.88 111.697 144.286 111.981 143.35C112.741 145.624 113.669 147.108 114.791 147.42L114.986 149.961C114.986 149.961 112.446 151.133 114.791 151.133C114.927 151.128 115.062 151.108 115.194 151.073L114.986 152.11C114.986 152.11 113.814 153.283 114.4 153.869Z" fill="#D0CDE1"/>
<path d="M164.606 258.926C251.365 258.926 321.698 257.766 321.698 256.336C321.698 254.906 251.365 253.747 164.606 253.747C77.8459 253.747 7.51321 254.906 7.51321 256.336C7.51321 257.766 77.8459 258.926 164.606 258.926Z" fill="#3F3D56"/>
<path d="M219.587 269.715C315.022 269.715 392.388 266.72 392.388 263.025C392.388 259.331 315.022 256.336 219.587 256.336C124.152 256.336 46.7863 259.331 46.7863 263.025C46.7863 266.72 124.152 269.715 219.587 269.715Z" fill="#3F3D56"/>
<path d="M187.695 279.641C234.531 279.641 272.499 276.646 272.499 272.952C272.499 269.257 234.531 266.262 187.695 266.262C140.859 266.262 102.891 269.257 102.891 272.952C102.891 276.646 140.859 279.641 187.695 279.641Z" fill="#3F3D56"/>
<path d="M310.261 284.388C331.117 284.388 348.024 282.843 348.024 280.936C348.024 279.029 331.117 277.483 310.261 277.483C289.406 277.483 272.499 279.029 272.499 280.936C272.499 282.843 289.406 284.388 310.261 284.388Z" fill="#3F3D56"/>
<path d="M258.473 296.041C268.364 296.041 276.383 294.495 276.383 292.588C276.383 290.681 268.364 289.136 258.473 289.136C248.581 289.136 240.562 290.681 240.562 292.588C240.562 294.495 248.581 296.041 258.473 296.041Z" fill="#3F3D56"/>
<path d="M112.601 281.367C122.493 281.367 130.511 279.822 130.511 277.915C130.511 276.008 122.493 274.462 112.601 274.462C102.71 274.462 94.6909 276.008 94.6909 277.915C94.6909 279.822 102.71 281.367 112.601 281.367Z" fill="#3F3D56"/>
<path d="M201.074 238.857L202.8 250.941L211.431 250.078L210.568 237.563L201.074 238.857Z" fill="#FFB8B8"/>
<path d="M160.074 238.857L158.348 250.941L149.716 250.078L150.58 237.563L160.074 238.857Z" fill="#FFB8B8"/>
<path d="M147.559 113.701C147.559 113.701 139.79 122.764 141.517 137.006C143.243 151.248 146.264 183.616 146.264 183.616L148.422 241.015L162.232 240.152L164.39 191.384L171.295 152.111L189.853 197.858C189.853 197.858 198.916 240.584 199.347 240.584C199.779 240.584 212.294 239.289 212.294 239.289L206.252 188.795C206.252 188.795 196.758 115.428 191.147 114.133C185.537 112.838 147.559 113.701 147.559 113.701Z" fill="#2F2E41"/>
<path d="M212.294 248.352C212.294 248.352 204.526 243.173 201.505 249.215C198.484 255.257 201.074 259.573 201.074 259.573C201.074 259.573 203.663 261.299 202.368 263.026C201.074 264.752 200.642 275.973 211.863 274.246C223.084 272.52 217.473 260.868 217.473 260.868L212.294 248.352Z" fill="#2F2E41"/>
<path d="M148.853 248.352C148.853 248.352 156.622 243.173 159.643 249.215C162.664 255.257 160.074 259.573 160.074 259.573C160.074 259.573 157.485 261.299 158.779 263.026C160.074 264.752 160.506 275.973 149.285 274.246C138.064 272.52 143.674 260.868 143.674 260.868L148.853 248.352Z" fill="#2F2E41"/>
<path d="M158.132 29.7605C158.132 29.7605 162.016 40.5498 158.995 46.5919C155.974 52.6339 163.743 59.539 163.743 59.539C163.743 59.539 184.026 49.1813 181.437 44.0024C178.848 38.8236 174.532 31.9184 175.395 27.6027L158.132 29.7605Z" fill="#FFB8B8"/>
<path d="M165.685 33.8604C173.312 33.8604 179.495 27.6773 179.495 20.0501C179.495 12.4228 173.312 6.23975 165.685 6.23975C158.057 6.23975 151.874 12.4228 151.874 20.0501C151.874 27.6773 158.057 33.8604 165.685 33.8604Z" fill="#FFB8B8"/>
<path d="M155.758 45.9446C155.758 45.9446 169.615 57.4755 179.95 41.1365L190.716 47.2393L196.326 112.838C196.326 112.838 164.821 130.964 149.716 115.428L151.874 54.576L155.758 45.9446Z" fill="#D0CDE1"/>
<path d="M160.11 39.485L140.653 52.4179L147.559 84.3543L138.496 133.985L153.169 111.975L160.11 39.485Z" fill="#575A89"/>
<path d="M177.306 35.8851L182.084 39.0393L201.505 45.9444L198.484 99.4594L206.684 133.985L195.032 140.027C195.032 140.027 192.874 123.628 179.495 115.428C166.116 107.228 174.253 38.3414 177.306 35.8851Z" fill="#575A89"/>
<path d="M144.969 119.743L150.58 123.628C150.58 123.628 143.459 131.18 142.164 129.885C141.789 129.526 141.498 129.088 141.312 128.603C141.125 128.118 141.048 127.598 141.085 127.08L139.79 124.059L144.969 119.743Z" fill="#FFB8B8"/>
<path d="M182.266 118.904L180.358 121.901C180.358 121.901 174.748 124.491 176.042 126.217C177.337 127.943 188.126 131.828 190.284 127.943L192.442 124.059L182.266 118.904Z" fill="#FFB8B8"/>
<path d="M143.243 51.9866L140.222 52.4181L135.259 84.5703C135.259 84.5703 133.317 90.3965 135.475 104.207C137.632 118.017 139.769 127.01 139.769 127.01L149.285 120.175L144.969 108.954L150.58 67.9548L143.243 51.9866Z" fill="#575A89"/>
<path d="M194.6 45.0814L201.505 45.9446C201.505 45.9446 209.273 54.1444 210.568 62.7759C211.863 71.4074 211.431 96.007 211.431 96.007L191.579 127.512L180.79 119.743L195.895 92.986L188.558 61.0496L194.6 45.0814Z" fill="#575A89"/>
<path d="M178.854 7.55938C176.766 4.16811 173.497 1.66912 169.677 0.543365L166.871 2.7881L167.962 0.169868C167.044 0.0299157 166.116 -0.0237472 165.188 0.00958195L162.664 3.25555L163.709 0.120768C161.518 0.393008 159.407 1.11621 157.51 2.24476C155.613 3.37331 153.97 4.88273 152.685 6.67784C149.472 11.311 148.93 17.7543 152.09 22.4237C152.958 19.7576 154.011 17.256 154.878 14.5899C155.56 14.6828 156.251 14.6862 156.934 14.5999L157.989 12.137L158.284 14.4957C161.556 14.2107 166.408 13.5849 169.51 13.0116L169.208 11.2021L171.012 12.7058C171.963 12.487 172.527 12.2887 172.48 12.137C174.787 15.8556 177.072 18.2308 179.379 21.9494C180.254 16.7042 181.8 12.3442 178.854 7.55938Z" fill="#2F2E41"/>
<path d="M178.089 21.486C178.606 21.486 179.024 20.6489 179.024 19.6162C179.024 18.5836 178.606 17.7465 178.089 17.7465C177.573 17.7465 177.155 18.5836 177.155 19.6162C177.155 20.6489 177.573 21.486 178.089 21.486Z" fill="#FFB8B8"/>
<path d="M327.467 263.707C327.865 277.327 319.907 282.318 309.92 282.61C309.688 282.617 309.457 282.621 309.227 282.623C308.764 282.626 308.306 282.618 307.851 282.599C298.819 282.224 291.67 277.43 291.3 264.764C290.917 251.656 307.187 234.624 308.408 233.365L308.41 233.363C308.456 233.315 308.48 233.291 308.48 233.291C308.48 233.291 327.07 250.089 327.467 263.707Z" fill="#7E7E81"/>
<path d="M309.201 280.546L315.545 271.112L309.214 281.561L309.227 282.623C308.764 282.626 308.306 282.618 307.852 282.599L308.166 268.953L308.158 268.848L308.169 268.828L308.199 267.538L301.252 257.451L308.191 266.573L308.216 266.846L308.453 256.536L302.453 246.078L308.471 254.725L308.408 233.365L308.408 233.294L308.41 233.363L308.808 250.198L314.277 243.36L308.826 251.648L308.945 260.87L313.978 251.87L308.964 262.226L309.03 267.354L316.349 254.817L309.053 269.143L309.201 280.546Z" fill="#3F3D56"/>
<path d="M96.1444 243.424C96.5421 257.043 88.5842 262.034 78.5973 262.326C78.3653 262.333 78.1344 262.337 77.9045 262.339C77.4414 262.342 76.9827 262.334 76.5286 262.315C67.4964 261.941 60.3469 257.146 59.977 244.48C59.5942 231.372 75.864 214.34 77.0847 213.081L77.0868 213.079C77.1332 213.031 77.157 213.007 77.157 213.007C77.157 213.007 95.7467 229.805 96.1444 243.424Z" fill="#7E7E81"/>
<path d="M77.8783 260.262L84.2223 250.828L77.8912 261.277L77.9045 262.339C77.4413 262.342 76.9827 262.335 76.5286 262.316L76.8432 248.67L76.8346 248.564L76.8462 248.544L76.8763 247.254L69.9288 237.168L76.8681 246.289L76.8927 246.562L77.1304 236.252L71.1296 225.794L77.1475 234.441L77.0847 213.081L77.0848 213.01L77.0869 213.08L77.4852 229.914L82.9542 223.076L77.5031 231.364L77.6225 240.586L82.655 231.586L77.641 241.942L77.7074 247.07L85.0261 234.533L77.7297 248.859L77.8783 260.262Z" fill="#3F3D56"/>
<path d="M268.997 282.908C269.23 290.903 264.559 293.833 258.697 294.004C258.561 294.008 258.426 294.01 258.291 294.011C258.019 294.013 257.75 294.009 257.483 293.998C252.181 293.777 247.985 290.963 247.768 283.528C247.543 275.834 257.093 265.837 257.809 265.098L257.811 265.097C257.838 265.069 257.852 265.055 257.852 265.055C257.852 265.055 268.764 274.915 268.997 282.908Z" fill="#7E7E81"/>
<path d="M258.275 292.792L261.999 287.255L258.283 293.388L258.291 294.011C258.019 294.013 257.749 294.009 257.483 293.998L257.668 285.988L257.663 285.926L257.669 285.914L257.687 285.157L253.609 279.236L257.682 284.591L257.697 284.751L257.836 278.699L254.314 272.56L257.846 277.636L257.809 265.098L257.809 265.056L257.811 265.097L258.044 274.979L261.255 270.965L258.055 275.83L258.125 281.243L261.079 275.96L258.136 282.039L258.175 285.049L262.471 277.69L258.188 286.099L258.275 292.792Z" fill="#3F3D56"/>
<path d="M413.962 22.0921C413.975 22.0527 413.988 22.0129 414 21.9734C413.995 21.9907 413.988 22.0073 413.983 22.0247L413.962 22.0921Z" fill="#2F2E41"/>
<path d="M353.653 251.094L385.619 203.558L353.718 256.208L353.785 261.557C351.451 261.575 349.141 261.536 346.852 261.44L348.438 192.682L348.394 192.152L348.453 192.049L348.604 185.552L313.598 134.727L348.563 180.689L348.687 182.063L349.885 130.113L319.649 77.4193L349.971 120.987L349.654 13.3614L349.655 13.0032L349.665 13.3555L351.672 98.179L379.229 63.7236L351.763 105.486L352.364 151.954L377.722 106.603L352.457 158.785L352.792 184.624L389.669 121.451L352.904 193.638L353.653 251.094Z" fill="#3F3D56"/>
<path d="M27.2561 249.251L49.0078 216.904L27.3006 252.731L27.3459 256.371C25.758 256.383 24.1854 256.357 22.6283 256.292L23.7072 209.504L23.6776 209.143L23.7174 209.073L23.8207 204.652L0 170.067L23.7926 201.343L23.877 202.277L24.6919 166.927L4.11723 131.071L24.7505 160.717L24.5351 87.4811L24.5356 87.2373L24.5426 87.477L25.9084 145.197L44.6597 121.751L25.9698 150.169L26.379 181.789L43.6341 150.93L26.4424 186.438L26.6703 204.02L51.7638 161.033L26.7465 210.154L27.2561 249.251Z" fill="#3F3D56"/>
</svg>
