<svg width="34" height="35" viewBox="0 0 34 35" fill="none" xmlns="http://www.w3.org/2000/svg">
<path d="M13.4207 0.314583C11.8344 0.665157 9.29266 1.6974 7.80199 2.57384C6.25398 3.50871 3.40642 6.44963 2.45086 8.10512C1.45708 9.81904 0.4633 12.6626 0.13841 14.6102C-0.110035 16.1683 -0.0144793 19.2651 0.348633 20.8427C1.51441 26.1013 4.89709 30.425 9.59844 32.7232C12.2358 34.0087 13.0193 34.184 16.574 34.184C20.2434 34.184 21.2563 33.9697 23.9318 32.6259C28.0407 30.5808 31.1558 26.9388 32.6083 22.4787C33.1243 20.9206 33.239 20.1805 33.3345 18.1939C33.6021 12.6626 31.9585 8.43622 28.098 4.65781C26.4163 3.0218 25.1167 2.16484 22.938 1.2884C19.8038 0.022438 16.402 -0.328136 13.4207 0.314583ZM20.702 3.0218C23.6069 4.01509 26.0149 5.70953 27.9069 8.08565C29.3021 9.858 30.4678 12.7015 30.7927 15.1361L30.9074 15.9736H27.238H23.5496L23.5878 11.2019L23.626 6.44963L22.3456 5.67058L21.0651 4.911L21.0078 10.4423L20.9696 15.9736H16.7078H12.4651L12.5224 10.6371C12.5607 7.01445 12.5033 5.2421 12.3696 5.1642C12.2549 5.08629 11.6242 5.33948 10.9744 5.70953L9.78955 6.37173L9.73222 11.1629L9.69399 15.9736H6.04376H2.41264L2.54642 15.0387C2.96686 12.0783 4.68687 8.63099 6.76999 6.60545C8.77666 4.63833 11.8344 3.00232 14.3189 2.53489C16.0771 2.22327 19.0202 2.43751 20.702 3.0218ZM8.70021 18.6224L9.69399 18.7587V23.2967V27.8152L11.0318 28.6137L12.3696 29.3928L12.4078 23.9978L12.4651 18.6029L16.3065 18.5639C18.4278 18.5444 20.3389 18.5834 20.5682 18.6418C20.9696 18.7392 20.9696 18.7976 20.9696 24.0757C20.9696 27.0167 21.0078 29.4123 21.046 29.4123C21.1607 29.4123 23.11 28.1268 23.4158 27.8541C23.6069 27.6789 23.6643 26.6271 23.626 23.2772C23.626 20.8816 23.6643 18.8366 23.7407 18.7197C23.8745 18.486 29.0918 18.4081 30.1429 18.6224L30.7545 18.7587L30.6589 19.752C30.5252 20.979 30.1238 22.2644 29.2256 24.1536C28.6714 25.3027 28.1363 26.0234 26.7029 27.5036C25.0594 29.198 24.6772 29.4902 23.0527 30.2497C20.6638 31.3794 18.8482 31.8273 16.574 31.8078C11.1082 31.7494 6.42598 28.7306 3.92242 23.6667C3.06242 21.9528 2.27886 19.1093 2.54642 18.6808C2.66108 18.486 7.17132 18.4471 8.70021 18.6224Z" fill="black"/>
</svg>
